HIERARCHY
ROOT Hips
{
	OFFSET	0.000000	0.000000	0.000000
	CHANNELS 6 Xposition Yposition Zposition Zrotation Xrotation Yrotation
	JOINT LeftUpLeg
	{
		OFFSET	12.830505	-7.049846	-1.643436
		CHANNELS 3 Zrotation Xrotation Yrotation
		JOINT LeftLeg
		{
			OFFSET	0.620834	-39.957500	-1.919341
			CHANNELS 3 Zrotation Xrotation Yrotation
			JOINT LeftFoot
			{
				OFFSET	-0.413890	-44.704761	-3.870325
				CHANNELS 3 Zrotation Xrotation Yrotation
				JOINT LeftFootHeel
				{
					OFFSET	0.164738	-8.918193	-6.555130
					CHANNELS 3 Zrotation Xrotation Yrotation
					End Site
					{
						OFFSET	-0.604053	0.000000	21.044330
					}
				}
			}
		}
	}
	JOINT RightUpLeg
	{
		OFFSET	-12.830505	-7.049846	-1.643436
		CHANNELS 3 Zrotation Xrotation Yrotation
		JOINT RightLeg
		{
			OFFSET	-0.620834	-39.957500	-1.919341
			CHANNELS 3 Zrotation Xrotation Yrotation
			JOINT RightFoot
			{
				OFFSET	0.413890	-44.704761	-3.870325
				CHANNELS 3 Zrotation Xrotation Yrotation
				JOINT RightFootHeel
				{
					OFFSET	-0.164738	-8.918193	-6.555130
					CHANNELS 3 Zrotation Xrotation Yrotation
					End Site
					{
						OFFSET	0.604053	0.000000	21.044330
					}
				}
			}
		}
	}
	JOINT Spine
	{
		OFFSET	0.000000	12.498170	1.820647
		CHANNELS 3 Zrotation Xrotation Yrotation
		JOINT Spine1
		{
			OFFSET	0.000000	7.620000	0.000000
			CHANNELS 3 Zrotation Xrotation Yrotation
			JOINT LeftShoulder
			{
				OFFSET	9.167800	29.136339	-5.551221
				CHANNELS 3 Zrotation Xrotation Yrotation
				JOINT LeftArm
				{
					OFFSET	12.133453	-3.880866	1.461963
					CHANNELS 3 Zrotation Xrotation Yrotation
					JOINT LeftForeArm
					{
						OFFSET	2.507115	-31.664905	-1.069404
						CHANNELS 3 Zrotation Xrotation Yrotation
						JOINT LeftHand
						{
							OFFSET	4.116172	-24.512624	5.009439
							CHANNELS 3 Zrotation Xrotation Yrotation
							End Site
							{
								OFFSET	-0.213136	-10.931856	2.182134
							}
						}
					}
				}
			}
			JOINT RightShoulder
			{
				OFFSET	-9.167800	29.136339	-5.551221
				CHANNELS 3 Zrotation Xrotation Yrotation
				JOINT RightArm
				{
					OFFSET	-12.133453	-3.880866	1.461963
					CHANNELS 3 Zrotation Xrotation Yrotation
					JOINT RightForeArm
					{
						OFFSET	-2.507115	-31.664905	-1.069404
						CHANNELS 3 Zrotation Xrotation Yrotation
						JOINT RightHand
						{
							OFFSET	-4.116172	-24.512624	5.009439
							CHANNELS 3 Zrotation Xrotation Yrotation
							End Site
							{
								OFFSET	0.213136	-10.931856	2.182134
							}
						}
					}
				}
			}
			JOINT Neck
			{
				OFFSET	0.000000	32.926272	-3.635654
				CHANNELS 3 Zrotation Xrotation Yrotation
				JOINT Head
				{
					OFFSET	0.000000	12.481178	4.646143
					CHANNELS 3 Zrotation Xrotation Yrotation
					End Site
					{
						OFFSET	0.000000	17.715204	-2.222063
					}
				}
			}
		}
	}
}
MOTION
Frames:     13
Frame Time: 0.016667
-0.827169	101.033279	0.615965	-1.155630	-1.276997	-10.577501	2.899273	-8.722416	6.884143	-0.478357	24.176052	1.419511	-0.465726	-13.252249	0.321157	0.	0.	0.	-0.584169	-10.186192	-4.041509	0.091850	26.484720	10.716677	-4.125875	-14.885590	-3.858620	0.	0.	0.	0.000000	0.000000	0.000000	4.412268	1.620788	-19.553020	3.975171	3.418566	8.623456	6.764431	19.035551	8.962017	-14.965174	-19.862154	-29.622240	6.391239	1.329256	-9.583839	-4.083866	7.375828	2.855550	-39.265980	11.355243	-26.204193	-58.864147	-133.020538	-70.323471	-11.552090	0.380354	7.155312	1.977124	-2.669237	20.803907	-5.669434	-0.609054	15.898702	
-0.811721	100.922375	0.621222	-1.108622	-1.282850	-10.775632	2.823522	-9.012608	6.853642	-0.467177	24.786493	1.254219	-0.413000	-13.535602	0.721598	0.	0.	0.	-0.697498	-10.712294	-4.135139	0.085218	27.461758	10.836191	-4.264410	-15.295758	-3.768119	0.	0.	0.	0.000000	0.000000	0.000003	4.462399	1.876381	-19.545055	4.030519	3.272785	8.597315	6.748645	20.171371	9.525626	-16.261778	-20.930647	-30.125212	6.391284	1.341504	-9.908399	-4.146705	7.508403	2.731961	-40.467236	10.934465	-28.325993	-56.628254	-134.228378	-68.863640	-11.308742	0.413344	7.279009	2.068367	-2.875368	20.996073	-5.985157	-0.776676	16.124237	
-0.772364	100.725527	0.585606	-1.051491	-1.369105	-10.943652	2.636576	-9.547940	6.538381	-0.396919	25.927380	0.983882	-0.364837	-14.000159	1.433037	0.	0.	0.	-0.869402	-11.508610	-4.510433	-0.015727	29.198591	10.898180	-4.464579	-16.114244	-3.417512	0.	0.	0.	0.000000	0.000000	0.000002	4.563447	2.560869	-19.603056	3.926801	2.802969	8.685760	6.755816	22.479856	10.831993	-18.852594	-23.087337	-30.710043	5.844177	1.746421	-10.499615	-4.237438	7.628408	2.601759	-42.811897	10.259964	-32.945343	-52.446819	-136.666275	-66.442795	-10.560706	0.431051	7.415881	2.309054	-3.408111	21.295530	-6.906356	-1.178502	16.531996	
-0.702076	100.667391	0.574546	-1.081249	-1.459520	-10.872394	2.533449	-9.785965	6.156609	-0.356060	26.471390	0.924442	-0.415761	-14.091151	1.693001	0.	0.	0.	-0.960568	-11.735083	-4.838069	0.035215	30.306715	10.651963	-4.638671	-16.887613	-3.055703	0.	0.	0.	0.000000	0.000000	0.000002	4.654991	2.994921	-19.712446	3.858116	2.605557	8.823616	6.170006	24.685970	12.848462	-20.551043	-24.931618	-32.447872	5.422564	2.096174	-10.702614	-4.283447	7.638466	2.613595	-43.932625	10.047261	-35.410980	-50.420471	-137.853821	-65.306038	-10.114441	0.478192	7.450101	2.348309	-3.682640	21.372738	-7.644707	-1.662406	16.770914	
-0.652090	100.454826	0.556499	-1.208865	-1.700194	-9.777296	2.176554	-10.560607	4.389284	-0.182896	27.988794	0.192439	-0.262756	-14.593357	3.021445	0.	0.	0.	-1.287827	-11.912662	-6.205184	0.112263	31.347202	10.342290	-4.787130	-17.435566	-2.743314	0.	0.	0.	0.000000	0.000000	0.000002	4.721214	3.964141	-20.245808	3.642855	2.552809	9.269758	5.634932	25.882940	14.851999	-23.318375	-26.847647	-31.878235	4.815351	3.039046	-10.907861	-4.489357	7.749095	2.612414	-46.596699	9.977771	-43.161255	-45.043594	-141.471619	-62.522945	-9.026871	0.390351	7.511961	2.425798	-4.417492	20.992430	-8.165234	-1.975677	16.740072	
-0.388147	100.416359	0.500935	-1.362970	-1.643646	-7.314086	1.675205	-11.707836	1.850109	0.065603	29.037706	0.054940	-0.455085	-14.407058	3.007195	0.	0.	0.	-1.396494	-11.335811	-7.921043	0.330208	30.952478	9.752540	-4.968076	-17.611116	-3.191324	0.	0.	0.	0.000000	0.000000	-0.000001	4.296656	4.092785	-21.070177	3.415196	3.119608	10.138896	5.633100	26.350597	15.829613	-25.499725	-29.089947	-30.820778	5.576017	3.328292	-11.278302	-4.465580	7.823838	2.523273	-48.459038	10.060152	-50.486614	-41.439323	-144.677567	-61.960854	-8.215611	0.304998	7.550428	2.987918	-4.530784	19.991177	-9.329226	-2.470197	16.113630	
-0.272904	100.501984	0.617673	-1.555125	-1.432640	-4.975389	1.427520	-12.392070	0.423901	0.614554	29.227566	-0.666794	-0.732412	-14.056903	2.523243	0.	0.	0.	-1.227518	-10.552977	-8.797935	0.805365	29.625267	9.136569	-5.163260	-17.180231	-4.238986	0.	0.	0.	0.000000	0.000000	0.000000	3.811567	3.691931	-21.394800	3.358542	3.796012	10.782656	4.906836	26.480385	16.991087	-26.414127	-30.792679	-31.193275	6.580154	3.337045	-11.850583	-4.278269	7.631309	2.287831	-49.460243	9.921802	-54.329620	-40.152485	-145.963364	-62.437260	-7.836606	0.403474	7.400438	3.761086	-4.049225	19.008516	-10.044499	-2.841165	14.610451	
-0.260267	100.725875	0.842761	-1.677857	-1.068212	-2.330743	1.286194	-12.795489	-0.090643	1.472494	28.555082	-2.392391	-0.996660	-13.333887	1.804359	0.	0.	0.	-1.034597	-9.649693	-9.521716	1.372070	27.650005	7.585013	-5.082118	-16.477762	-4.700268	0.	0.	0.	0.000000	0.000000	0.000003	2.986573	2.931773	-21.154865	3.199167	4.708449	11.161312	4.345318	25.611658	17.741343	-26.629782	-32.048203	-31.642027	7.812920	3.524710	-12.642344	-4.038185	7.081738	1.880404	-50.631386	9.190556	-57.053883	-39.281750	-146.527405	-62.776428	-7.890141	1.042367	7.166188	4.671992	-3.226182	17.463417	-10.127481	-2.780550	12.593508	
-0.351027	101.054092	1.168751	-1.685149	-0.598344	0.356515	1.213280	-12.879710	-0.165421	2.230906	27.101669	-4.489442	-1.215330	-12.260261	1.034623	0.	0.	0.	-0.822096	-8.703959	-9.949930	1.888567	25.113144	5.230122	-4.726170	-15.394680	-4.593510	0.	0.	0.	0.000000	0.000000	0.000000	1.712407	2.017215	-20.276457	3.007105	5.531560	11.140418	4.134169	23.713482	18.214405	-26.023489	-32.481441	-32.204132	9.078266	4.067939	-13.617229	-3.983996	6.049489	1.647093	-52.020744	7.363132	-58.801685	-38.466438	-146.636276	-61.901112	-8.607113	2.369745	6.997341	5.275444	-2.616565	16.217691	-8.295053	-2.099902	9.159844	
-0.453262	101.441093	1.499558	-1.685485	-0.102624	2.818932	1.150077	-12.769234	-0.405489	2.736544	25.267340	-6.227806	-1.500119	-10.920006	0.349605	0.	0.	0.	-0.460887	-7.635793	-10.184059	2.148375	21.973324	2.894201	-4.233648	-13.808368	-4.361118	0.	0.	0.	0.000000	0.000000	0.000001	0.176255	1.396047	-18.339605	3.084063	5.535118	10.595927	4.239808	21.042398	18.110838	-24.568419	-31.775547	-32.707230	9.893800	5.010052	-14.675545	-4.293385	4.579751	1.675951	-53.958099	3.862205	-59.486565	-38.460720	-145.848831	-60.541870	-9.566278	3.196157	7.373562	3.537418	-3.822397	17.444796	-2.206067	-0.741534	1.241013	
-0.681199	101.831845	1.714945	-1.649672	0.455245	4.817258	1.157822	-12.655420	-0.763062	3.012167	23.309685	-7.222910	-1.960174	-9.400481	-0.537375	0.	0.	0.	-0.027419	-6.521426	-10.234891	2.398682	20.133778	0.964661	-4.039587	-13.497043	-4.417615	0.	0.	0.	0.000000	0.000000	0.000002	-1.888691	0.395812	-13.646022	3.814078	5.176147	8.162014	7.710113	21.285717	13.606084	-25.488737	-33.190331	-31.364902	9.640012	6.401023	-15.754267	-4.326770	3.519983	0.751579	-57.182171	-1.171527	-58.533417	-40.522247	-143.015930	-59.678261	-10.522992	3.442592	7.958950	4.934951	-3.302032	10.707039	1.811135	-1.302892	-1.631027	
-1.012862	102.143928	1.748041	-1.509985	1.036652	6.197452	1.217514	-12.656692	-0.890072	3.083395	21.513186	-7.514678	-2.454343	-7.887084	-1.688792	0.	0.	0.	0.408050	-5.512748	-9.966921	1.716512	14.885702	-0.894452	-3.041907	-9.656531	-3.936507	0.	0.	0.	0.000000	0.000000	-0.000001	-4.051507	-0.058601	-8.806664	4.592647	4.513360	6.956969	4.960623	13.097766	14.920533	-19.598616	-26.496426	-32.318245	8.387363	7.879787	-16.685047	-4.410704	1.515401	1.724464	-61.062916	-7.406716	-55.464245	-46.845913	-136.674774	-60.989197	-11.218933	2.954923	9.334459	3.910480	-3.329778	5.608659	9.199491	-2.697860	-5.552296	
-1.201415	102.382034	1.715159	-1.246220	1.545633	6.953231	1.124450	-12.615293	-0.412595	3.146616	19.960548	-7.413510	-2.748277	-6.544368	-2.989214	0.	0.	0.	0.631216	-4.715758	-9.410949	1.320781	11.894030	-2.037302	-2.607727	-7.672452	-4.206319	0.	0.	0.	0.000000	0.000000	-0.000002	-6.532666	-0.798322	-1.791842	6.210966	4.182437	5.071616	5.229098	7.221518	10.750817	-16.429695	-21.777304	-31.289005	6.580554	9.078503	-17.280525	-4.545967	-0.330720	2.059408	-64.169144	-14.267310	-50.137829	-61.523724	-126.171204	-68.458038	-10.799159	2.451542	10.899556	3.702371	-2.191190	-3.283392	11.941983	-5.259397	-4.076102	
